<?xml version="1.0" encoding="utf-8"?>
<svg version="1.1" baseProfile="full"  width="261" height="261" viewBox="0 0 261 261"
		 xmlns="http://www.w3.org/2000/svg" xmlns:xlink="http://www.w3.org/1999/xlink" xmlns:ev="http://www.w3.org/2001/xml-events">
<desc></desc>
<rect width="261" height="261" fill="#ffffff" cx="0" cy="0" />
<defs>
<rect id="p" width="9" height="9" />
</defs>
<g fill="#000000">
<use x="36" y="36" xlink:href="#p" />
<use x="36" y="45" xlink:href="#p" />
<use x="36" y="54" xlink:href="#p" />
<use x="36" y="63" xlink:href="#p" />
<use x="36" y="72" xlink:href="#p" />
<use x="36" y="81" xlink:href="#p" />
<use x="36" y="90" xlink:href="#p" />
<use x="36" y="108" xlink:href="#p" />
<use x="36" y="117" xlink:href="#p" />
<use x="36" y="162" xlink:href="#p" />
<use x="36" y="171" xlink:href="#p" />
<use x="36" y="180" xlink:href="#p" />
<use x="36" y="189" xlink:href="#p" />
<use x="36" y="198" xlink:href="#p" />
<use x="36" y="207" xlink:href="#p" />
<use x="36" y="216" xlink:href="#p" />
<use x="45" y="36" xlink:href="#p" />
<use x="45" y="90" xlink:href="#p" />
<use x="45" y="126" xlink:href="#p" />
<use x="45" y="144" xlink:href="#p" />
<use x="45" y="162" xlink:href="#p" />
<use x="45" y="216" xlink:href="#p" />
<use x="54" y="36" xlink:href="#p" />
<use x="54" y="54" xlink:href="#p" />
<use x="54" y="63" xlink:href="#p" />
<use x="54" y="72" xlink:href="#p" />
<use x="54" y="90" xlink:href="#p" />
<use x="54" y="126" xlink:href="#p" />
<use x="54" y="162" xlink:href="#p" />
<use x="54" y="180" xlink:href="#p" />
<use x="54" y="189" xlink:href="#p" />
<use x="54" y="198" xlink:href="#p" />
<use x="54" y="216" xlink:href="#p" />
<use x="63" y="36" xlink:href="#p" />
<use x="63" y="54" xlink:href="#p" />
<use x="63" y="63" xlink:href="#p" />
<use x="63" y="72" xlink:href="#p" />
<use x="63" y="90" xlink:href="#p" />
<use x="63" y="108" xlink:href="#p" />
<use x="63" y="126" xlink:href="#p" />
<use x="63" y="135" xlink:href="#p" />
<use x="63" y="162" xlink:href="#p" />
<use x="63" y="180" xlink:href="#p" />
<use x="63" y="189" xlink:href="#p" />
<use x="63" y="198" xlink:href="#p" />
<use x="63" y="216" xlink:href="#p" />
<use x="72" y="36" xlink:href="#p" />
<use x="72" y="54" xlink:href="#p" />
<use x="72" y="63" xlink:href="#p" />
<use x="72" y="72" xlink:href="#p" />
<use x="72" y="90" xlink:href="#p" />
<use x="72" y="108" xlink:href="#p" />
<use x="72" y="117" xlink:href="#p" />
<use x="72" y="126" xlink:href="#p" />
<use x="72" y="135" xlink:href="#p" />
<use x="72" y="144" xlink:href="#p" />
<use x="72" y="162" xlink:href="#p" />
<use x="72" y="180" xlink:href="#p" />
<use x="72" y="189" xlink:href="#p" />
<use x="72" y="198" xlink:href="#p" />
<use x="72" y="216" xlink:href="#p" />
<use x="81" y="36" xlink:href="#p" />
<use x="81" y="90" xlink:href="#p" />
<use x="81" y="108" xlink:href="#p" />
<use x="81" y="117" xlink:href="#p" />
<use x="81" y="135" xlink:href="#p" />
<use x="81" y="144" xlink:href="#p" />
<use x="81" y="162" xlink:href="#p" />
<use x="81" y="216" xlink:href="#p" />
<use x="90" y="36" xlink:href="#p" />
<use x="90" y="45" xlink:href="#p" />
<use x="90" y="54" xlink:href="#p" />
<use x="90" y="63" xlink:href="#p" />
<use x="90" y="72" xlink:href="#p" />
<use x="90" y="81" xlink:href="#p" />
<use x="90" y="90" xlink:href="#p" />
<use x="90" y="108" xlink:href="#p" />
<use x="90" y="126" xlink:href="#p" />
<use x="90" y="144" xlink:href="#p" />
<use x="90" y="162" xlink:href="#p" />
<use x="90" y="171" xlink:href="#p" />
<use x="90" y="180" xlink:href="#p" />
<use x="90" y="189" xlink:href="#p" />
<use x="90" y="198" xlink:href="#p" />
<use x="90" y="207" xlink:href="#p" />
<use x="90" y="216" xlink:href="#p" />
<use x="99" y="108" xlink:href="#p" />
<use x="99" y="117" xlink:href="#p" />
<use x="99" y="126" xlink:href="#p" />
<use x="99" y="144" xlink:href="#p" />
<use x="108" y="36" xlink:href="#p" />
<use x="108" y="45" xlink:href="#p" />
<use x="108" y="54" xlink:href="#p" />
<use x="108" y="72" xlink:href="#p" />
<use x="108" y="90" xlink:href="#p" />
<use x="108" y="108" xlink:href="#p" />
<use x="108" y="126" xlink:href="#p" />
<use x="108" y="153" xlink:href="#p" />
<use x="108" y="162" xlink:href="#p" />
<use x="108" y="171" xlink:href="#p" />
<use x="108" y="180" xlink:href="#p" />
<use x="108" y="189" xlink:href="#p" />
<use x="108" y="216" xlink:href="#p" />
<use x="117" y="63" xlink:href="#p" />
<use x="117" y="99" xlink:href="#p" />
<use x="117" y="135" xlink:href="#p" />
<use x="117" y="144" xlink:href="#p" />
<use x="117" y="180" xlink:href="#p" />
<use x="117" y="198" xlink:href="#p" />
<use x="117" y="207" xlink:href="#p" />
<use x="126" y="36" xlink:href="#p" />
<use x="126" y="72" xlink:href="#p" />
<use x="126" y="90" xlink:href="#p" />
<use x="126" y="108" xlink:href="#p" />
<use x="126" y="126" xlink:href="#p" />
<use x="126" y="135" xlink:href="#p" />
<use x="126" y="153" xlink:href="#p" />
<use x="126" y="162" xlink:href="#p" />
<use x="126" y="180" xlink:href="#p" />
<use x="126" y="216" xlink:href="#p" />
<use x="135" y="36" xlink:href="#p" />
<use x="135" y="81" xlink:href="#p" />
<use x="135" y="99" xlink:href="#p" />
<use x="135" y="135" xlink:href="#p" />
<use x="135" y="153" xlink:href="#p" />
<use x="135" y="171" xlink:href="#p" />
<use x="135" y="180" xlink:href="#p" />
<use x="135" y="189" xlink:href="#p" />
<use x="135" y="216" xlink:href="#p" />
<use x="144" y="36" xlink:href="#p" />
<use x="144" y="45" xlink:href="#p" />
<use x="144" y="54" xlink:href="#p" />
<use x="144" y="63" xlink:href="#p" />
<use x="144" y="72" xlink:href="#p" />
<use x="144" y="81" xlink:href="#p" />
<use x="144" y="90" xlink:href="#p" />
<use x="144" y="99" xlink:href="#p" />
<use x="144" y="108" xlink:href="#p" />
<use x="144" y="117" xlink:href="#p" />
<use x="144" y="153" xlink:href="#p" />
<use x="144" y="162" xlink:href="#p" />
<use x="144" y="171" xlink:href="#p" />
<use x="144" y="180" xlink:href="#p" />
<use x="144" y="189" xlink:href="#p" />
<use x="153" y="108" xlink:href="#p" />
<use x="153" y="126" xlink:href="#p" />
<use x="153" y="162" xlink:href="#p" />
<use x="153" y="171" xlink:href="#p" />
<use x="153" y="207" xlink:href="#p" />
<use x="162" y="36" xlink:href="#p" />
<use x="162" y="45" xlink:href="#p" />
<use x="162" y="54" xlink:href="#p" />
<use x="162" y="63" xlink:href="#p" />
<use x="162" y="72" xlink:href="#p" />
<use x="162" y="81" xlink:href="#p" />
<use x="162" y="90" xlink:href="#p" />
<use x="162" y="117" xlink:href="#p" />
<use x="162" y="126" xlink:href="#p" />
<use x="162" y="144" xlink:href="#p" />
<use x="162" y="162" xlink:href="#p" />
<use x="162" y="180" xlink:href="#p" />
<use x="162" y="198" xlink:href="#p" />
<use x="162" y="207" xlink:href="#p" />
<use x="171" y="36" xlink:href="#p" />
<use x="171" y="90" xlink:href="#p" />
<use x="171" y="162" xlink:href="#p" />
<use x="171" y="171" xlink:href="#p" />
<use x="180" y="36" xlink:href="#p" />
<use x="180" y="54" xlink:href="#p" />
<use x="180" y="63" xlink:href="#p" />
<use x="180" y="72" xlink:href="#p" />
<use x="180" y="90" xlink:href="#p" />
<use x="180" y="108" xlink:href="#p" />
<use x="180" y="117" xlink:href="#p" />
<use x="180" y="126" xlink:href="#p" />
<use x="180" y="162" xlink:href="#p" />
<use x="180" y="171" xlink:href="#p" />
<use x="180" y="198" xlink:href="#p" />
<use x="180" y="216" xlink:href="#p" />
<use x="189" y="36" xlink:href="#p" />
<use x="189" y="54" xlink:href="#p" />
<use x="189" y="63" xlink:href="#p" />
<use x="189" y="72" xlink:href="#p" />
<use x="189" y="90" xlink:href="#p" />
<use x="189" y="126" xlink:href="#p" />
<use x="189" y="144" xlink:href="#p" />
<use x="189" y="162" xlink:href="#p" />
<use x="189" y="171" xlink:href="#p" />
<use x="189" y="180" xlink:href="#p" />
<use x="189" y="207" xlink:href="#p" />
<use x="198" y="36" xlink:href="#p" />
<use x="198" y="54" xlink:href="#p" />
<use x="198" y="63" xlink:href="#p" />
<use x="198" y="72" xlink:href="#p" />
<use x="198" y="90" xlink:href="#p" />
<use x="198" y="108" xlink:href="#p" />
<use x="198" y="117" xlink:href="#p" />
<use x="198" y="135" xlink:href="#p" />
<use x="198" y="153" xlink:href="#p" />
<use x="198" y="171" xlink:href="#p" />
<use x="198" y="207" xlink:href="#p" />
<use x="207" y="36" xlink:href="#p" />
<use x="207" y="90" xlink:href="#p" />
<use x="207" y="108" xlink:href="#p" />
<use x="207" y="117" xlink:href="#p" />
<use x="207" y="126" xlink:href="#p" />
<use x="207" y="135" xlink:href="#p" />
<use x="207" y="144" xlink:href="#p" />
<use x="207" y="180" xlink:href="#p" />
<use x="207" y="198" xlink:href="#p" />
<use x="207" y="207" xlink:href="#p" />
<use x="216" y="36" xlink:href="#p" />
<use x="216" y="45" xlink:href="#p" />
<use x="216" y="54" xlink:href="#p" />
<use x="216" y="63" xlink:href="#p" />
<use x="216" y="72" xlink:href="#p" />
<use x="216" y="81" xlink:href="#p" />
<use x="216" y="90" xlink:href="#p" />
<use x="216" y="108" xlink:href="#p" />
<use x="216" y="126" xlink:href="#p" />
<use x="216" y="144" xlink:href="#p" />
<use x="216" y="180" xlink:href="#p" />
<use x="216" y="198" xlink:href="#p" />
<use x="216" y="207" xlink:href="#p" />
</g>
</svg>